<svg xmlns="http://www.w3.org/2000/svg" width="203" height="48" fill="none"><path fill="#fff" d="M29.932 0h7.045v30.614q0 4.886-2.295 8.659-2.295 3.75-6.455 5.909-4.16 2.136-9.75 2.136-5.568 0-9.727-2.136-4.159-2.16-6.455-5.91Q0 35.502 0 30.615V0h7.023v30.046q0 3.158 1.386 5.613 1.41 2.454 3.977 3.864 2.57 1.386 6.091 1.386 3.546 0 6.114-1.386 2.59-1.41 3.954-3.864 1.387-2.455 1.387-5.613zm22.226 0v46.546h-6.796V0zm7.861 46.546v-34.91h6.523v5.682h.432q1.091-2.886 3.568-4.5 2.478-1.636 5.932-1.636 3.5 0 5.864 1.636 2.386 1.636 3.522 4.5h.364q1.25-2.796 3.977-4.454 2.728-1.682 6.5-1.682 4.75 0 7.75 2.977 3.024 2.977 3.023 8.977v23.41h-6.795V23.772q0-3.546-1.932-5.137t-4.614-1.59q-3.318 0-5.159 2.045-1.84 2.022-1.84 5.204v22.25H80.36V23.341q0-2.841-1.772-4.568t-4.614-1.727q-1.932 0-3.568 1.022-1.614 1-2.614 2.796-.977 1.795-.977 4.159v21.522zm69.988.704q-4.91 0-8.569-2.25t-5.681-6.295q-2.023-4.046-2.023-9.455 0-5.432 2.023-9.5 2.022-4.068 5.681-6.318t8.569-2.25q4.908 0 8.568 2.25t5.682 6.318 2.022 9.5q0 5.41-2.022 9.455-2.024 4.045-5.682 6.295-3.66 2.25-8.568 2.25m.022-5.705q3.183 0 5.273-1.681t3.091-4.478q1.023-2.795 1.023-6.159 0-3.341-1.023-6.136-1-2.819-3.091-4.523-2.09-1.704-5.273-1.704-3.204 0-5.318 1.704-2.091 1.704-3.114 4.523-1 2.795-1 6.136 0 3.364 1 6.16 1.023 2.794 3.114 4.477 2.114 1.68 5.318 1.681m22.556 5V11.636h6.568v5.546h.363q.955-2.818 3.364-4.432 2.432-1.636 5.5-1.636.636 0 1.5.045.887.045 1.386.114v6.5q-.408-.114-1.454-.25a14 14 0 0 0-2.091-.16q-2.409 0-4.296 1.023a7.6 7.6 0 0 0-2.954 2.796q-1.09 1.773-1.091 4.045v21.318zm33.129.773q-3.318 0-6-1.227-2.682-1.25-4.25-3.614-1.546-2.363-1.546-5.795 0-2.955 1.137-4.864a8.4 8.4 0 0 1 3.068-3.023q1.932-1.114 4.318-1.681a43 43 0 0 1 4.864-.864l5.09-.59q1.955-.252 2.841-.796.887-.546.887-1.773v-.16q0-2.976-1.682-4.613-1.66-1.636-4.955-1.636-3.432 0-5.409 1.523-1.954 1.5-2.704 3.34l-6.387-1.454q1.137-3.181 3.319-5.137a13.45 13.45 0 0 1 5.068-2.863q2.863-.91 6.022-.91 2.091.001 4.432.5 2.364.478 4.409 1.774 2.068 1.295 3.387 3.704 1.318 2.387 1.318 6.205v23.181h-6.636v-4.772h-.273q-.66 1.317-1.977 2.59-1.319 1.275-3.387 2.114-2.068.84-4.954.841m1.477-5.454q2.819 0 4.818-1.114 2.023-1.113 3.068-2.91a7.55 7.55 0 0 0 1.068-3.886v-4.5q-.363.364-1.409.682-1.022.296-2.341.523-1.317.205-2.568.387-1.25.158-2.091.272-1.977.25-3.613.841-1.614.59-2.591 1.705-.955 1.09-.955 2.909 0 2.522 1.864 3.818 1.863 1.273 4.75 1.273"/></svg>